<svg xmlns="http://www.w3.org/2000/svg" viewBox="0 0 32 32" fill="none">
  <!-- Open book, accent color #8b4513 -->
  <path d="M4 6h10a4 4 0 0 1 4 4v16a3 3 0 0 0-3-3H4z" fill="#8b4513"/>
  <path d="M28 6H18a4 4 0 0 0-4 4v16a3 3 0 0 1 3-3h11z" fill="#a0522d"/>
  <!-- Spine highlight -->
  <rect x="14.5" y="6" width="3" height="17" fill="#6b3410" rx="1"/>
  <!-- Pages lines on left side -->
  <line x1="7" y1="11" x2="13" y2="11" stroke="#faf7f2" stroke-width="1.2" stroke-linecap="round"/>
  <line x1="7" y1="14" x2="13" y2="14" stroke="#faf7f2" stroke-width="1.2" stroke-linecap="round"/>
  <line x1="7" y1="17" x2="13" y2="17" stroke="#faf7f2" stroke-width="1.2" stroke-linecap="round"/>
  <!-- Pages lines on right side -->
  <line x1="19" y1="11" x2="25" y2="11" stroke="#faf7f2" stroke-width="1.2" stroke-linecap="round"/>
  <line x1="19" y1="14" x2="25" y2="14" stroke="#faf7f2" stroke-width="1.2" stroke-linecap="round"/>
  <line x1="19" y1="17" x2="25" y2="17" stroke="#faf7f2" stroke-width="1.2" stroke-linecap="round"/>
</svg>
